mtllib materials.mtl
v -0.02616531 -0.07453549 0.007201582
v -0.03303584 0.02429426 0.0004893839
v 0.03298621 0.02129161 -0.01906952
v 0.03639114 -0.07131469 -0.07932425
v 0.0121581 0.01169193 -0.1191389
v -0.03869653 -0.06632531 -0.1205958
v 0.03537194 -0.07322335 0.00838992
v 0.007833064 -0.251116 -0.1303916
v -0.05246115 0.1000458 -0.09304035
v -0.03748235 -0.0415144 -0.05698344
v -0.02703404 0.007810831 -0.08686459
v -0.02203551 0.07761014 -0.1619805
v 0.04786782 0.08862674 -0.1573437
v 0.04438591 0.01769054 -0.09002483
v 0.04129831 0.1074442 -0.06953195
v -0.04602075 0.1484466 -0.04697341
v 0.02311997 0.1576838 -0.03598613
v -0.04443496 0.1898865 -0.1153856
v 0.005699545 0.1945969 -0.1792185
v 0.03533177 0.1941112 -0.1109776
v -0.03917846 0.1197368 0.003644317
v 0.007115394 -0.04052126 -0.1666496
v -0.004342258 -0.2333661 -0.08015573
v 0.01785015 -0.2483808 -0.1034713
v 0.02866361 -0.3125714 -0.08534697
v -0.008811027 -0.2093695 -0.1202751
v 0.008777261 -0.2925787 -0.08680624
v 0.003414243 -0.284168 -0.07169381
v 0.03244478 -0.2772022 -0.07109874
v 0.03570527 -0.298686 -0.03251272
v 0.01349436 -0.3081217 -0.01512811
v 0.01978754 -0.2864124 -0.03052676
v 0.03395662 -0.2846273 -0.03070316
v 0.03199729 -0.2851524 0.001474351
v 0.03083093 -0.2709748 0.0002020299
v 0.01776928 -0.286275 0.002006918
v 0.01660293 -0.2720973 0.0007345378
v 0.02430065 -0.2579775 0.01614836
v 0.01019827 -0.2598244 0.01744926
v 0.01044992 -0.2692819 0.00674966
v 0.02457118 -0.252699 0.006745368
v 0.02455227 -0.267435 0.005448848
v 0.006243318 -0.2450526 0.003058881
v 0.01130706 -0.257983 0.006397963
v 0.01950757 -0.2397685 0.003406197
v 0.01952098 -0.2536138 -0.01298845
v 0.005377442 -0.2551925 -0.0117839
v -0.04483595 0.2611477 -0.07416198
v -0.003712922 0.2795072 -0.1375809
v 0.03664003 0.2174665 -0.08870208
v 0.04009941 0.2442416 -0.04689401
v 0.03836972 0.230854 -0.06779805
v -0.05050766 0.1863525 0.01520821
v -0.04616493 0.1719816 0.01192251
v -0.04182792 0.2114556 0.0570882
v 0.01114106 0.3125715 -0.07907444
v 0.03083183 0.2145634 0.06341192
v -0.03752497 0.1497233 0.05689374
v 0.007230312 0.1385939 0.05752909
v 0.0166204 0.1245505 0.01023367
v 0.0308256 0.1754382 0.04246026
v 0.03237703 0.1929079 0.04121783
v -0.04457557 0.1799771 0.06961447
v -0.03582996 0.1294852 0.1558196
v -0.01373461 0.1294045 0.1605414
v 0.006307304 0.1503531 0.08326763
v 0.02268463 0.1767133 0.07340077
v -0.04157567 0.1463925 0.1712655
v -0.005904645 0.1458 0.1784317
v -0.0189805 0.1648949 0.1369021
v -0.03088847 0.1947222 0.1792185
v 0.03543077 -0.0451951 -0.06232944
v 0.0999307 -0.03908694 -0.05810291
v -0.09993073 -0.03284228 -0.05798209
v -0.009022146 -0.09766805 -0.1170186
v 0.03502528 -0.07377577 -0.143459
vn 0.2865651 0.0847349 0.9543062
vn 0.4487044 -0.2766131 -0.8497939
vn 0.9872335 -0.1590785 0.008009627
vn 0.2098955 0.7806488 0.5886692
vn -0.9816349 -0.1706406 0.08529201
vn -0.9976711 -0.001929789 -0.06818253
vn -0.6274678 -0.09267338 -0.7731079
vn 0.9834422 0.09699874 0.1530771
vn -0.05459961 -0.5680647 0.8211707
vn -0.2470283 0.5073867 0.8255517
vn 0.9953394 -0.04656978 0.08444423
vn -0.8475915 -0.4845251 -0.2163889
vn 0.159008 -0.72849 -0.6663474
vn -0.9167981 -0.01732853 -0.3989749
vn 0.09133874 -0.1663269 -0.9818313
vn 0.9940667 0.09433357 0.05415445
vn 0.1925547 -0.8421527 -0.503688
vn 0.9526425 0.1820626 0.2435681
vn -0.9945408 0.09786008 0.03622471
vn -0.1432356 0.9173203 0.3714931
vn -0.9798375 -0.1810732 0.08444553
vn -0.006622147 -0.4826084 0.8758112
vn 0.9337409 0.05754343 -0.3532941
vn 0.9239226 0.1359556 -0.3576076
vn 0.4293237 -0.516223 0.7410769
vn 0.07196438 0.2619126 -0.9624047
vn -0.978772 -0.2045196 -0.01330712
vn -0.915845 -0.300643 -0.2661612
vn -0.9888452 -0.147308 0.02203503
vn 0.7730899 0.2172963 0.5959147
vn 0.9914214 -0.0590061 -0.1166276
vn 0.9266694 0.05095543 -0.3724076
vn -0.1805413 0.6927823 0.6981817
vn -0.5655876 -0.6035948 -0.5619467
vn -0.9443656 -0.2732455 -0.1830588
vn -0.7010307 -0.7050943 -0.1067613
vn -0.6170717 -0.7600064 0.2039921
vn -0.2336617 0.961393 0.1453473
vn 0.9913787 0.1152976 0.06224773
vn 0.9920303 0.1252073 -0.01411335
vn -0.1206103 0.9755313 0.1838255
vn 0.4894412 -0.8572223 0.1600547
vn -0.9200609 0.3659444 0.1399018
vn 0.1198532 -0.9127878 0.3904532
vn -0.9919688 -0.1172881 -0.04734429
vn -0.1189715 0.9037216 -0.411258
vn 0.9473937 0.1050719 0.3023328
vn 0.07104723 -0.4876635 0.8701361
vn -0.7216062 -0.1205454 -0.6817282
vn -0.08675034 0.8652683 -0.493746
vn 0.9732403 0.1872906 0.133138
vn -0.1322014 0.7411354 -0.6582106
vn -0.1567049 0.7215951 -0.6743473
vn 0.1394248 -0.4396329 0.88729
vn -0.8053305 -0.453452 0.3818691
vn -0.02455931 0.6942058 0.7193576
vn -0.9935057 0.0726424 -0.0875762
vn -0.08867032 -0.02426868 -0.9957654
vn 0.9218196 0.2965154 -0.2496543
vn 0.9732403 0.1872906 0.133138
vn -0.008827818 0.08765069 -0.9961122
vn -0.2276895 0.5173363 0.8249367
vn -0.9052482 -0.3949573 -0.156635
vn -0.3029646 0.7950455 -0.5254666
vn 0.1006661 -0.988431 -0.1134481
vn -0.1388678 0.7565489 -0.6390224
vn -0.994638 -0.0486517 0.09126056
vn -0.9997897 0.005761416 -0.01968463
vn 0.06732436 -0.2685668 -0.9609055
vn 0.8859637 0.2931267 -0.3593677
vn 0.9814693 -0.1876202 0.03894608
vn -0.9976445 -0.005997218 -0.06833261
vn -0.8420909 0.266507 -0.468889
vn -0.9419091 -0.3126764 0.1226408
vn -0.08471297 0.8154439 0.5726038
vn 0.8661435 0.4595797 0.1964226
vn -0.2378035 -0.9430043 0.2327927
vn 0.9926811 -0.09358525 -0.07632851
vn -0.9660512 -0.25095 0.0613932
vn -0.09628581 0.3752591 0.9219055
vn 0.03936099 -0.9788168 -0.2009187
vn 0.862582 -0.4477622 0.2355022
vn -0.9767442 -0.2105051 -0.0407236
vn 0.8862009 -0.2464248 -0.3923298
vn 0.8604095 -0.5022286 0.08638331
vn -0.1528114 -0.6943624 0.7032138
vn 0.8592125 -0.5043171 0.0861299
vn -0.9570997 -0.2866629 -0.04224581
vn -0.1972505 -0.1406207 0.9702154
vn -0.2756431 0.9102812 0.3088837
vn -0.8650972 0.2617161 -0.4279152
vn 0.8879089 0.4545767 -0.07055359
vn -0.04148126 0.2632878 0.9638252
vn 0.9278978 0.2743402 -0.2524741
vn 0.9855931 -0.1423399 0.09135429
vn 0.9802314 -0.195837 -0.02818362
vn 0.8903658 0.3463306 -0.2954723
vn 0.02961219 -0.126948 -0.9914672
vn 0.2796779 0.8584785 0.4298778
vn -0.6344385 0.7179701 0.2863684
vn 0.8832023 0.2726834 -0.3815726
vn -0.05456201 0.9980354 0.03079537
vn -0.7862155 0.09645581 -0.6103782
vn -0.6043906 0.4067575 -0.6850258
vn -0.9828082 0.1775869 -0.05050582
vn 0.9995107 0.02878567 0.01224021
vn -0.02447668 0.2783404 0.9601706
vn -0.1290039 -0.6746061 0.7268182
vn 0.984432 -0.06898968 0.1616604
vn 0.09842699 -0.4128009 -0.9054874
vn -0.003266156 -0.5454557 0.8381333
vn 0.691531 0.7184804 0.07463774
vn -0.1023571 -0.6504056 0.7526591
vn -0.05686903 -0.5084594 -0.859206
vn -0.5349308 0.8227885 -0.1920109
vn -0.9878417 -0.05890241 0.1438721
vn 0.1498673 0.02909516 -0.988278
vn 0.6302828 0.02381446 -0.7760004
vn -0.1168463 -0.6322081 -0.7659373
vn 0.7791055 0.625577 -0.04059798
vn 0.4873553 -0.8728978 0.02311713
vn -0.4500068 -0.5097409 -0.7332518
vn 0.6480827 -0.5444658 0.5324903
vn -0.9694244 0.2376513 -0.06114225
vn 0.8588842 -0.4500237 0.244534
vn 0.9865255 -0.07735743 0.1441642
vn 0.9564234 -0.1379568 0.2573367
vn 0.8547364 -0.4262136 0.2962561
vn 0.9686379 -0.2452955 -0.03963101
vn 0.01728923 -0.871439 0.4901991
vn -0.9885851 -0.1407261 0.05381392
vn 0.1368771 -0.814105 -0.564356
vn -0.9820877 -0.1495023 0.1146854
vn -0.9832144 0.1347643 0.1229957
vn 0.03010776 0.956627 0.2897557
vn -0.9505996 -0.3028446 0.06815955
vn 0.6099773 -0.561026 -0.5596226
vn 0.6779942 -0.1474759 -0.7201214
vn 0.9966769 -0.01152559 0.08063691
vn -0.978507 0.184428 0.09225136
vn -0.2267028 -0.888934 0.3979978
vn 0.1479332 -0.9635633 -0.2228491
vt 0.1606996 0.05641216
vt 0.1698611 0.06024144
vt 0.1666388 0.06633416
vt -0.1480857 0.08839273
vt -0.1570699 0.09154063
vt -0.1544273 0.0826094
vt 0.04937202 0.1567464
vt 0.04181283 0.161201
vt 0.02847928 0.1477944
vt 0.1396721 0.0314284
vt 0.1420764 0.024969
vt 0.1533322 0.02965315
vt -0.0814013 0.1518852
vt -0.07214858 0.1608269
vt -0.07861824 0.1586407
vt -0.08980849 0.1553225
vt -0.08207503 0.1597472
vt -0.08087252 0.1699426
vt -0.1601502 0.07966466
vt -0.1583651 0.08443339
vt -0.1631908 0.09238638
vt 0.1136424 0.1421976
vt 0.1184257 0.1368222
vt 0.1149985 0.1518889
vt 0.1316788 -0.0019887
vt 0.1380693 -0.009558951
vt 0.1379668 -0.002498189
vt 0.1599546 0.08341996
vt 0.1542356 0.09124784
vt 0.1462883 0.08514722
vt 0.08315202 0.1574519
vt 0.08461203 0.1673638
vt 0.07658133 0.1714368
vt -0.1776065 0.04534362
vt -0.1803051 0.03795879
vt -0.1718021 0.0292219
vt -0.1404431 0.07784925
vt -0.1437253 0.07156274
vt -0.1351785 0.06587544
vt -0.138135 0.125773
vt -0.1320777 0.1307857
vt -0.1442828 0.1327412
vt -0.1779833 0.06665723
vt -0.1753886 0.07325733
vt -0.1868814 0.07492438
vt 0.096784 0.1643272
vt 0.1043121 0.1593867
vt 0.1076266 0.1684233
vt -0.1121425 0.06612355
vt -0.1159373 0.06016838
vt -0.1104995 0.05798617
vt 0.1467167 0.1216503
vt 0.1529816 0.1209091
vt 0.1525283 0.129323
vt -0.0479953 0.1889973
vt -0.05204254 0.1820966
vt -0.04566489 0.1800018
vt 0.09231102 0.04342864
vt 0.09929412 0.03843861
vt 0.1019069 0.04492156
vt -0.07530292 0.1593313
vt -0.08437601 0.1502074
vt -0.06730327 0.1437368
vt 0.13277 0.004811835
vt 0.1313516 0.01080247
vt 0.1146926 0.002252096
vt -0.05731941 0.1468503
vt -0.06017638 0.1464466
vt -0.0549527 0.1405212
vt -0.06512219 0.1436665
vt -0.06228097 0.1441692
vt -0.05265175 0.16267
vt 0.1099635 0.0524929
vt 0.08986396 0.04692435
vt 0.09282146 0.04495744
vt -0.1380044 0.01995721
vt -0.1333981 0.01989788
vt -0.1496588 0.02954723
vt -0.09540767 0.1268571
vt -0.09490252 0.131526
vt -0.106479 0.1404442
vt -0.1319022 0.08714684
vt -0.1365079 0.08724031
vt -0.1291761 0.08178349
vt -0.07401817 0.1443399
vt -0.07522151 0.1398006
vt -0.07227104 0.1355087
vt 0.1391146 0.07540147
vt 0.1364836 0.07778756
vt 0.1343676 0.07325856
vt 0.01611589 0.1506284
vt 0.01338794 0.1479374
vt 0.01883718 0.1471348
vt -0.06170648 0.1376886
vt -0.06057845 0.1413507
vt -0.06437898 0.1438948
vt 0.1231869 0.06198103
vt 0.1187179 0.06100918
vt 0.1198599 0.05825011
vt -0.1418227 0.0310269
vt -0.1391708 0.0319968
vt -0.1465978 0.03468683
vt -0.1229585 0.09174756
vt -0.1215311 0.09286179
vt -0.1283244 0.09897602
vt -0.1246444 -0.0297335
vt -0.1269766 -0.03132529
vt -0.1214707 -0.03619366
vt -0.05424158 -0.09932207
vt -0.05304441 -0.1006806
vt -0.04860982 -0.1005669
vt 0.05592922 0.0298201
vt 0.05486749 0.03261102
vt 0.05149343 0.0298675
vt 0.08429588 0.1262394
vt 0.08312313 0.1254242
vt 0.08643523 0.1238273
vt 0.08740308 0.1248768
vt 0.07107588 0.1328182
vt 0.07216965 0.1337366
vt 0.06971312 0.1370317
vt 0.06508561 0.02071738
vt 0.06124591 0.01925148
vt 0.06175767 0.0179181
vt 0.002217549 0.05122427
vt 0.001282471 0.05404764
vt -0.004209816 0.05446385
vt 0.0097383 0.1345274
vt 0.00889301 0.1319263
vt 0.01546459 0.1352173
vt 0.02118349 -0.007462849
vt 0.02459588 -0.009705394
vt 0.02476635 -0.008288176
vt -0.08225764 0.1275903
vt -0.08545911 0.1262965
vt -0.08450772 0.1252322
vt -0.02512141 -0.009282568
vt -0.0253361 -0.00787058
vt -0.02865931 -0.008555537
vt -0.02850406 -0.009974546
vt 0.1123991 0.1018842
vt 0.111241 0.1010483
vt 0.1144227 0.1011336
vt 0.110595 0.01164369
vt 0.1108742 0.01024302
vt 0.1140292 0.01025604
vt -0.132013 0.07015833
vt -0.1333037 0.07076977
vt -0.1339224 0.07010879
vt -0.04203106 -0.01442766
vt -0.0421252 -0.01300255
vt -0.04265521 -0.01508349
vt 0.1108995 0.1073577
vt 0.1096157 0.1066847
vt 0.1109533 0.1062804
vt -0.07401632 -0.00154905
vt -0.07258938 -0.001610119
vt -0.07192484 -0.001015814
vt -0.07503979 0.003245259
vt -0.0757102 0.002657587
vt -0.075785 0.001231333
vt 0.116989 0.01967238
vt 0.1167197 0.02107498
vt 0.1135374 0.02101612
vt 0.1160268 -0.08011426
vt 0.1173269 -0.07952301
vt 0.1141744 -0.07964852
vt 0.1220232 0.04850477
vt 0.122564 0.04718289
vt 0.1245324 0.04791424
vt -0.06551515 0.133517
vt -0.0640898 0.1334261
vt -0.06475294 0.1343456
vt -0.1424012 0.04557208
vt -0.141941 0.04692414
vt -0.1433759 0.04615096
vt 0.03168093 0.1479214
vt 0.03189009 0.1493342
vt 0.02982242 0.1487602
vt 0.1108995 0.1073577
vt 0.1109533 0.1062804
vt 0.1119123 0.1083206
vt -0.1401253 0.03944697
vt -0.1414658 0.04007258
vt -0.1415452 0.03864659
vt 0.1294299 0.06633121
vt 0.1290616 0.06771114
vt 0.1269242 0.06693627
vt -0.1406505 0.05495899
vt -0.1419925 0.05544766
vt -0.1406499 0.05383316
vt -0.05457542 0.01945196
vt -0.05422797 0.01806664
vt -0.05242918 0.01801092
vt -0.05040618 0.01011605
vt -0.05241604 0.01033675
vt -0.05281105 0.008964231
vt -0.05088737 0.008829967
vt -0.06874293 -0.003287919
vt -0.06868671 -0.0018608
vt -0.07083035 -0.001762888
vt -0.04450344 0.1467651
vt -0.04304781 0.1479684
vt -0.04484334 0.1480902
vt -0.08173383 0.1743423
vt -0.0787221 0.1817538
vt -0.08628535 0.1850056
vt -0.1861709 0.07447064
vt -0.1823708 0.08151045
vt -0.1920618 0.08266361
vt -0.09737021 0.1664491
vt -0.09596374 0.169357
vt -0.1034877 0.1740533
vt 0.05984828 0.1754503
vt 0.06330892 0.1836368
vt 0.06082355 0.1835146
vt 0.05833819 0.1833924
vt -0.1003897 0.1778165
vt -0.1023065 0.1663073
vt -0.09510766 0.1674955
vt -0.1209091 0.1393788
vt -0.1242893 0.1323734
vt -0.1162956 0.1304042
vt -0.1318952 0.1397569
vt -0.1386076 0.1368971
vt -0.1372 0.1362804
vt 0.1268283 0.05161239
vt 0.1389076 0.06464291
vt 0.1229144 0.05777455
vt 0.1852402 0.03287917
vt 0.1954987 0.04694047
vt 0.1879582 0.0440126
vt -0.002807629 -0.07629195
vt -0.00179795 -0.07179155
vt -0.006300612 -0.06956702
vt 0.04356346 0.1861288
vt 0.05145318 0.1843863
vt 0.05209911 0.1860216
vt -0.1343226 0.141783
vt -0.1311035 0.1408311
vt -0.1301297 0.1458288
vt 0.1732686 0.08393002
vt 0.174273 0.07567163
vt 0.177023 0.07766937
vt -0.06983063 0.005944852
vt -0.06053122 0.002006737
vt -0.05921055 0.003840006
vt 0.07321296 0.1366124
vt 0.07601444 0.1362029
vt 0.0766279 0.139401
vt -0.1402923 0.1329
vt -0.1435701 0.1336241
vt -0.1466187 0.1233575
vt -0.05640029 0.1769786
vt -0.04457942 0.1746734
vt -0.04908822 0.1761812
vt 0.04586037 0.1474177
vt 0.04552672 0.1441784
vt 0.05387715 0.1394317
vt 0.1249456 -0.03503932
vt 0.1248817 -0.03729785
vt 0.1272221 -0.03760926
vt 0.1272607 -0.03397061
vt 0.04528673 0.1439578
vt 0.05127113 0.1382741
vt 0.05364036 0.1392168
vt -0.1630724 0.0980783
vt -0.1607966 0.09870694
vt -0.1583342 0.1085011
vt 0.1805671 0.0504574
vt 0.1821412 0.04717664
vt 0.1860575 0.05030411
vt 0.06187193 0.04957267
vt 0.07169113 0.05384837
vt 0.06435344 0.05333821
vt -0.1280581 0.1161945
vt -0.1267883 0.1205217
vt -0.1319663 0.1193342
vt 0.1828422 0.009421972
vt 0.1803886 0.005349766
vt 0.1858747 0.005060213
vt 0.1812395 0.07120428
vt 0.1804675 0.07948761
vt 0.1774947 0.07681368
vt 0.03663099 0.195293
vt 0.03589416 0.2033484
vt 0.03418588 0.194831
vt 0.07312614 0.1781242
vt 0.07718207 0.1707386
vt 0.07629032 0.1787736
vt 0.04603764 0.1890362
vt 0.04317718 0.1806211
vt 0.051713 0.1805288
vt -0.00831007 0.2001972
vt -0.004082243 0.1924004
vt -0.001769856 0.1933195
vt -0.1956356 0.07775301
vt -0.1937891 0.07036315
vt -0.1870906 0.07618925
vt 0.14096 0.009962511
vt 0.1471513 0.003600045
vt 0.1504255 0.01065561
vt 0.04827245 0.1210833
vt 0.06087463 0.1272667
vt 0.05959598 0.1347757
vt -0.1106875 0.1471463
vt -0.1108423 0.1587357
vt -0.1178639 0.1562766
vt 0.05262534 0.006174933
vt 0.05575467 -0.001187636
vt 0.06005094 0.0057149
vt -0.1498835 0.113211
vt -0.13763 0.111586
vt -0.1460225 0.1203661
vt -0.1115759 0.08394936
vt -0.113907 0.07942237
vt -0.1063073 0.07626877
vt -0.04464464 0.1590252
vt -0.05140089 0.1637213
vt -0.05137361 0.1578604
vt 0.07011075 0.1578008
vt 0.07689633 0.1522384
vt 0.08057158 0.1613719
vt 0.07306122 0.158808
vt 0.1662607 0.07078695
vt 0.1576368 0.0660376
vt 0.1606558 0.06067239
vt 0.1118323 -0.02728968
vt 0.1109763 -0.03694626
vt 0.1175105 -0.0354079
vt 0.08785079 0.1545679
vt 0.08270682 0.1471825
vt 0.08572254 0.1479733
vt -0.1613288 0.0773632
vt -0.1559418 0.07300445
vt -0.1528781 0.07872877
vt 0.1219391 0.00375183
vt 0.1297319 0.005252189
vt 0.1212496 0.01020773
vt 0.1342109 -0.0565289
vt 0.138037 -0.05043492
vt 0.1299297 -0.04768701
vt 0.1163372 -0.02630616
vt 0.1077718 -0.02808696
vt 0.1093179 -0.03420004
vt -0.1593119 0.05889193
vt -0.1636862 0.06279271
vt -0.1632546 0.05397104
vt -0.01203239 0.07089698
vt -0.02059298 0.06842702
vt -0.01215985 0.06206568
vt -0.03836431 0.1674583
vt -0.03391342 0.1732524
vt -0.04194559 0.1767195
vt -0.1643177 0.04388501
vt -0.150252 0.03992195
vt -0.1601585 0.04509292
vt -0.1482259 0.0619402
vt -0.1546633 0.07559132
vt -0.1565406 0.06940641
vt -0.1517187 0.05818621
vt -0.156634 0.05792819
vt -0.1510605 0.05255879
vt 0.1471575 -0.05152053
vt 0.1422954 -0.05075461
vt 0.1385096 -0.05593914
vt -0.01814997 0.07055107
vt -0.0243317 0.07228255
vt -0.02334364 0.06670359
vt -0.1608604 0.05046972
vt -0.1660464 0.05621428
vt -0.1650301 0.04929889
vt 0.06808425 0.07243548
vt 0.06890269 0.06957611
vt 0.07160045 0.07035948
vt -0.03981059 0.1329622
vt -0.03722248 0.1318698
vt -0.03698928 0.1345948
vt 0.07438545 0.1354852
vt 0.07780974 0.1382624
vt 0.07515241 0.1400487
vt 0.1040491 0.1598232
vt 0.1081907 0.1614183
vt 0.1050911 0.1612394
vt 0.1158 0.1464915
vt 0.1176387 0.1500421
vt 0.1134273 0.1486416
vt 0.08547773 0.1365525
vt 0.07990661 0.1338577
vt 0.08457789 0.1320134
vt 0.04268417 0.1779417
vt 0.03473217 0.1793735
vt 0.03759673 0.1744179
vt 0.05949302 -0.03097411
vt 0.06560198 -0.03120826
vt 0.06066611 -0.02545824
vt -0.09545155 0.1659482
vt -0.09347967 0.1714658
vt -0.09948876 0.1694366
vt -0.1222705 0.05608403
vt -0.1192575 0.06085087
vt -0.1238788 0.06422835
vt -0.0834179 0.1745524
vt -0.07733118 0.1751235
vt -0.08097585 0.1790202
vt -0.02937143 0.1885063
vt -0.03424297 0.189435
vt -0.0342967 0.1860364
vt 0.0894727 0.004010888
vt 0.08608952 0.009845552
vt 0.07753175 0.002442213
vt -0.1481717 0.1275088
vt -0.150358 0.1224513
vt -0.1467206 0.1270029
vt -0.1110241 0.1281862
vt -0.1069925 0.1198027
vt -0.1033041 0.1221729
vt -0.1432127 0.1125138
vt -0.1462983 0.1093991
vt -0.1376369 0.1054489
vt 0.1036962 0.1652044
vt 0.1067944 0.1654061
vt 0.1003056 0.1748526
vt -0.0270937 0.1950085
vt -0.03750481 0.1855926
vt -0.03262064 0.1847329
vt 0.04016256 -0.0775196
vt 0.04321711 -0.07341568
vt 0.04043045 -0.07291512
vt -0.05542832 0.02330225
vt -0.0619394 0.02837407
vt -0.06606086 0.02534324
o group1580007276
g mesh1580007276
usemtl mat5
f 3/3/1 2/2/1 1/1/1
f 17/27/9 16/26/9 15/25/9
f 3/30/10 15/29/10 9/28/10
f 2/36/12 9/35/12 12/34/12
f 11/39/13 12/38/13 13/37/13
f 20/48/16 15/47/16 13/46/16
f 20/54/18 17/53/18 15/52/18
f 9/57/19 16/56/19 18/55/19
f 23/63/21 1/62/21 6/61/21
f 23/75/25 24/74/25 7/73/25
f 28/87/29 23/86/29 26/85/29
f 28/99/33 29/98/33 24/97/33
f 32/111/37 28/110/37 27/109/37
f 29/121/40 33/120/40 30/119/40
f 27/130/43 31/129/43 32/128/43
f 37/140/46 35/139/46 33/138/46 32/137/46
f 38/143/47 34/142/47 35/141/47
f 34/164/54 38/163/54 39/162/54
f 36/167/55 39/166/55 40/165/55
f 46/179/59 45/178/59 41/177/59
f 38/188/62 45/187/62 43/186/62
f 39/191/63 43/190/63 44/189/63
f 47/194/64 43/193/64 45/192/64
f 50/217/71 52/216/71 51/215/71 17/214/71
f 16/220/72 53/219/72 48/218/72
f 18/223/73 48/222/73 49/221/73
f 51/232/76 56/231/76 57/230/76
f 60/235/77 59/234/77 58/233/77
f 62/238/78 61/237/78 17/236/78
f 55/244/80 63/243/80 57/242/80
f 65/247/81 64/246/81 58/245/81
f 68/253/83 63/252/83 58/251/83
f 69/259/85 66/258/85 67/257/85
f 71/278/91 70/277/91 68/276/91
f 49/302/99 48/301/99 52/300/99
f 19/314/103 12/313/103 18/312/103
f 6/317/104 11/316/104 5/315/104
f 72/324/106 3/323/106 7/322/106 4/321/106
f 73/342/112 14/341/112 3/340/112
f 74/351/115 2/350/115 11/349/115
f 54/399/131 16/398/131 21/397/131
f 69/411/135 67/410/135 63/409/135
f 58/432/142 66/431/142 65/430/142
usemtl mat0
f 6/6/2 5/5/2 4/4/2
f 10/15/5 6/14/5 1/13/5
f 13/21/7 5/20/7 11/19/7
f 13/24/8 3/23/8 14/22/8
f 18/42/14 12/41/14 9/40/14
f 25/69/23 8/68/23 24/67/23
f 31/108/36 27/107/36 25/106/36
f 34/133/44 36/132/44 30/131/44
f 19/308/101 20/307/101 13/306/101
f 75/360/118 4/359/118 26/358/118
f 75/369/121 76/368/121 4/367/121
f 14/417/137 5/416/137 13/415/137
usemtl mat4
f 8/9/3 4/8/3 7/7/3
f 9/12/4 2/11/4 3/10/4
f 23/66/22 7/65/22 1/64/22
f 27/84/28 26/83/28 8/82/28
f 28/90/30 24/89/30 23/88/30
f 30/93/31 25/92/31 29/91/31
f 24/96/32 29/95/32 25/94/32
f 32/114/38 29/113/38 28/112/38
f 35/118/39 34/117/39 30/116/39 33/115/39
f 36/136/45 37/135/45 32/134/45
f 38/155/51 42/154/51 41/153/51
f 40/161/53 42/160/53 35/159/53
f 44/185/61 41/184/61 42/183/61
f 44/198/65 47/197/65 46/196/65 41/195/65
f 45/201/66 46/200/66 47/199/66
f 48/207/68 18/206/68 16/205/68
f 57/229/75 56/228/75 55/227/75
f 54/241/79 58/240/79 63/239/79
f 67/250/82 66/249/82 59/248/82
f 70/256/84 69/255/84 63/254/84
f 69/263/86 68/262/86 64/261/86 65/260/86
f 69/266/87 65/265/87 66/264/87
f 70/275/90 63/274/90 68/273/90
f 71/281/92 69/280/92 70/279/92
f 67/284/93 57/283/93 63/282/93
f 52/287/94 56/286/94 51/285/94
f 50/290/95 17/289/95 20/288/95
f 62/293/96 17/292/96 51/291/96
f 52/296/97 50/295/97 49/294/97
f 56/305/100 48/304/100 55/303/100
f 19/311/102 18/310/102 20/309/102
f 1/327/107 7/326/107 3/325/107
f 72/333/109 4/332/109 14/331/109
f 75/357/117 26/356/117 6/355/117
f 61/381/125 67/380/125 59/379/125
f 60/393/129 17/392/129 61/391/129
f 4/420/138 5/419/138 14/418/138
f 51/423/139 57/422/139 62/421/139
usemtl mat3
f 12/18/6 11/17/6 2/16/6
f 13/33/11 15/32/11 3/31/11
f 21/51/17 16/50/17 17/49/17
f 4/78/26 8/77/26 26/76/26
f 6/81/27 26/80/27 23/79/27
f 26/105/35 27/104/35 28/103/35
f 32/124/41 33/123/41 29/122/41
f 39/146/48 36/145/48 34/144/48
f 40/149/49 37/148/49 36/147/49
f 40/152/50 35/151/50 37/150/50
f 35/158/52 42/157/52 38/156/52
f 43/170/56 39/169/56 38/168/56
f 44/173/57 40/172/57 39/171/57
f 44/176/58 42/175/58 40/174/58
f 45/182/60 38/181/60 41/180/60
f 43/204/67 47/203/67 44/202/67
f 49/210/69 20/209/69 18/208/69
f 49/213/70 50/212/70 20/211/70
f 54/226/74 53/225/74 16/224/74
f 58/269/88 64/268/88 68/267/88
f 71/272/89 68/271/89 69/270/89
f 52/299/98 48/298/98 56/297/98
f 10/320/105 11/319/105 6/318/105
f 16/330/108 9/329/108 15/328/108
f 73/339/111 3/338/111 72/337/111
f 74/345/113 10/344/113 2/343/113
f 74/348/114 11/347/114 10/346/114
f 2/354/116 10/353/116 1/352/116
f 4/366/120 76/365/120 22/364/120
f 6/372/122 22/371/122 75/370/122
f 32/378/124 31/377/124 36/376/124
f 59/390/128 60/389/128 61/388/128
f 60/396/130 58/395/130 21/394/130
f 17/402/132 60/401/132 21/400/132
f 54/405/133 21/404/133 58/403/133
f 54/414/136 63/413/136 53/412/136
f 53/426/140 55/425/140 48/424/140
f 59/429/141 66/428/141 58/427/141
usemtl mat2
f 19/45/15 13/44/15 12/43/15
f 22/60/20 6/59/20 4/58/20
f 8/102/34 25/101/34 27/100/34
f 25/127/42 30/126/42 31/125/42
f 75/363/119 22/362/119 76/361/119
usemtl mat1
f 7/72/24 24/71/24 8/70/24
f 73/336/110 72/335/110 14/334/110
f 36/375/123 31/374/123 30/373/123
usemtl mat23
f 62/384/126 57/383/126 61/382/126
f 61/387/127 57/386/127 67/385/127
f 63/408/134 55/407/134 53/406/134
